<svg xmlns="http://www.w3.org/2000/svg" viewBox="0 0 64 64">
  <!-- Dark background -->
  <rect width="64" height="64" fill="#0d0d0d" rx="8"/>

  <!-- Flame shape in green (#39ff14) -->
  <path d="M32 12
           C28 18, 26 24, 26 28
           C26 28, 24 26, 22 28
           C20 30, 20 34, 22 38
           C24 42, 28 44, 32 44
           C36 44, 40 42, 42 38
           C44 34, 44 30, 42 28
           C40 26, 38 28, 38 28
           C38 24, 36 18, 32 12 Z"
        fill="#39ff14" opacity="0.9"/>

  <!-- Inner flame highlight -->
  <path d="M32 20
           C30 24, 29 27, 29 30
           C29 33, 30 35, 32 36
           C34 35, 35 33, 35 30
           C35 27, 34 24, 32 20 Z"
        fill="#0d0d0d" opacity="0.3"/>

  <!-- Small Ξ (Ethereum symbol) at bottom -->
  <text x="32" y="56"
        font-family="monospace"
        font-size="10"
        fill="#39ff14"
        text-anchor="middle"
        font-weight="bold">Ξ</text>
</svg>
